# xmcd CD database file
#
# Track frame offsets:
#	150
#	16258
#	31195
#	45328
#	63372
#	76195
#	93152
#	109490
#	121805
#	133895
#	154370
#	164571
#	178593
#
# Disc length: 2584 seconds
#
# Revision: 0
# Processed by: cddbd v1.5.1PL0 Copyright (c) Steve Scherf et al.
# Submitted via: CDex 1.51
#
DISCID=a10a160d
DTITLE=Maraguán, Conjunto Artistico - Maraguán, Conjunto Artistico
DYEAR=1900
DGENRE=Salsa
TTITLE0=El Yerberito (Néstor Milé)
TTITLE1=Aurora (Manuel Corona)
TTITLE2=Quimbombó que resbala (Luis M. Griñan)
TTITLE3=La Rosa Roja (Oscar Hernández Falcón)
TTITLE4=Mix de Cha Cha Cha (Poupurrit)
TTITLE5=El Manisero (Moisés Simón)
TTITLE6=A Santa Bárbera (Célina González)
TTITLE7=Hermosa Habana (Rolando Vergara)
TTITLE8=Pachito Eché (Armando Tovar)
TTITLE9=El Cuarto de Tula (D.R)
TTITLE10=Rumba como Quiera (Rolando Vergara)
TTITLE11=Mozambique pa' Bailar (Poupurrit) (Pello el Afrocán)
TTITLE12=Guajira Guantanamera (Joseíto Fernández)
EXTD=
EXTT0=
EXTT1=
EXTT2=
EXTT3=
EXTT4=
EXTT5=
EXTT6=
EXTT7=
EXTT8=
EXTT9=
EXTT10=
EXTT11=
EXTT12=
PLAYORDER=
